<?xml version="1.0" encoding="UTF-8" standalone="no"?><svg width="33" height="792" viewBox="0 0 33 792" xmlns="http://www.w3.org/2000/svg" xmlns:xlink="http://www.w3.org/1999/xlink"><svg width="33" height="33" viewBox="0 0 21 33" id="arrow"><title>Group</title><g transform="translate(-6)" fill="none" fill-rule="evenodd"><path fill="none" d="M0 0h33v33H0z"/><path d="M9.85 0L6 3.85 18.65 16.5 6 29.15 9.85 33l16.5-16.5L9.85 0z" fill="#DADADA"/></g></svg><svg width="33" height="33" viewBox="0 0 33 33" id="back-arrow" y="33"><title>icon_navarrow</title><path d="M7.044 14.246l8.811-10.568A2.246 2.246 0 0 0 14.131 0c-.669 0-1.297.295-1.724.807L.519 15.064a2.25 2.25 0 0 0 0 2.872l11.887 14.255a2.24 2.24 0 0 0 3.16.29c.95-.793 1.08-2.21.288-3.16L7.027 18.734l23.04.025a2.249 2.249 0 0 0 2.245-2.241 2.247 2.247 0 0 0-2.241-2.247l-23.027-.025z" stroke="#FFF" fill="#626272" fill-rule="evenodd"/></svg><svg width="33" height="33" viewBox="0 0 33 33" id="close-white" y="66"><title>icon_close</title><path d="M10.985 16.5L-.046 5.47 5.469-.047 16.5 10.984 27.53-.045l5.516 5.515L22.016 16.5l11.03 11.03-5.515 5.516L16.5 22.016 5.47 33.045l-5.516-5.515L10.984 16.5z" fill="#FFF" fill-rule="evenodd"/></svg><svg width="33" height="33" viewBox="0 0 33 33" id="cross" y="99"><title>icon_menuclose</title><g fill="#626272" fill-rule="evenodd"><path d="M1.056 2.611L29.864 31.42a1.1 1.1 0 1 0 1.555-1.555L2.611 1.056A1.1 1.1 0 0 0 1.056 2.61z"/><path d="M29.864 1.056L1.056 29.864a1.1 1.1 0 1 0 1.555 1.555L31.42 2.611a1.1 1.1 0 1 0-1.555-1.555z"/></g></svg><svg width="33" height="33" viewBox="0 0 33 33" id="earth" y="132"><title>icon_lang</title><g fill="#9F9FA8" fill-rule="evenodd"><path d="M22.385 13.83l.64.66.124-.018.05-.412.043-.458-.073-.27-.198-.035-.274.2-.486.117z"/><path d="M32.02 10.932c-.024-.066-.05-.13-.075-.196a17.32 17.32 0 0 0-.42-1.02c-.035-.078-.066-.155-.102-.232-.09-.191-.183-.38-.28-.566l-.03-.056a16.547 16.547 0 0 0-.48-.856l-.031-.053c-.18-.297-.368-.586-.564-.868l-.013-.02a16.397 16.397 0 0 0-5.43-4.934l-.075-.04c-.288-.16-.58-.313-.877-.456l-.088-.041a16.67 16.67 0 0 0-.91-.4c-.02-.008-.04-.014-.058-.022-.314-.124-.63-.24-.951-.345l-.035-.012a16.327 16.327 0 0 0-1.007-.292l-.033-.01v.001A16.475 16.475 0 0 0 16.481 0c-.099 0-.199.006-.298.008-.065 0-.13.003-.195.005-.554.017-1.109.062-1.664.136-.082.01-.164.02-.246.033-.155.023-.311.048-.467.076a16.588 16.588 0 0 0-1.41.314c-.107.03-.215.06-.322.092-.17.05-.34.103-.509.158-.081.026-.162.052-.243.08-.25.086-.497.178-.742.275l-.163.067c-.215.089-.428.182-.639.28l-.107.046-.066.033c-.228.109-.454.22-.676.34-.043.022-.084.047-.127.07-.17.093-.34.188-.507.287-.102.06-.202.122-.302.184a16.15 16.15 0 0 0-.647.42l-.164.116a16.42 16.42 0 0 0-1.315 1.03l-.086.074c-.142.125-.282.252-.419.38l-.05.049c-.425.405-.826.83-1.203 1.274l-.093.11a17.263 17.263 0 0 0-.715.922c-.06.083-.117.167-.175.25-.075.11-.152.219-.224.33-.123.185-.241.373-.356.564-.048.081-.094.164-.14.246-.076.13-.151.262-.224.395-.048.09-.094.18-.14.27a17.328 17.328 0 0 0-.326.663c-.063.138-.125.277-.185.416-.036.086-.073.171-.108.257l-.04.095a.131.131 0 0 1 .006-.007A16.59 16.59 0 0 0 .14 14.345c-.007.052-.01.103-.016.155-.03.245-.057.492-.077.74-.005.07-.007.14-.012.212-.015.233-.027.467-.032.702l-.001.2c-.002.24 0 .478.007.718l.009.181c.01.245.027.49.049.735l.016.164a16.235 16.235 0 0 0 .248 1.633l.034.168c.05.232.106.465.166.696l.052.198c.058.213.122.424.19.635.026.084.05.168.079.25.062.186.13.369.199.553.04.105.077.211.118.315.063.158.132.315.2.472.055.124.106.248.163.37.011.025.02.05.032.075.101.215.207.425.316.634l.07.13c.121.226.246.448.376.667l.044.075c.155.257.316.51.483.756h.001C5.968 30.369 11.138 33 16.505 33c2.35 0 4.737-.504 7.004-1.57 7.768-3.65 11.36-12.581 8.51-20.498zm-8.791 19.9a15.699 15.699 0 0 1-6.724 1.508c-4.862 0-9.415-2.26-12.385-5.967l-.126-.333.545.065.299-.091.104-.65-.078-.779-.143-.377.195-.13.09-.364.286-.195.04-.662-.17-.377-.377-.208-.377-.65-.506-.286c-.2-.12-.398-.242-.598-.364l-.338-.61-.493-.624v-.598l-.17-.545a880.18 880.18 0 0 0-.467-.715l-.338-.844-.13-.858-.142-.558-.45-.96c.07-.594.175-1.182.31-1.762l.181.513.265.392.204.11-.23-.502-.17-.595-.008-.563-.022-.186c.406-1.392 1-2.727 1.77-3.962l.383-.284.477-.443.708-.272c.13-.055.261-.108.392-.162l.042.272.392.009.563-.188-.52-.187.34-.307.274-.282-.12-.298.324-.034.367.341.383-.009.35-.016.255-.452.18-.64L8.7 4.13l-.588.154.434-.545.298-.478-.494.222-.716.545-.554.256-.776.307.724-.622.185-.3C7.837 3.22 8.5 2.81 9.2 2.448l.336.039.042.358-.272.468-.222.392.622.008.665-.349.767-.358.682-.298-.264-.154-.026-.264.29-.332.154-.333.23.205.11-.145.265.085.468.043-.315.417-.179.205-.358.426-.57.494-.376.12-.392.4-.392.205-.409.409-.196.324.103.102-.077.247.253.13.264-.222.366-.23.435-.264.46-.051.554-.188.282-.179.281.068.708-.11.281-.197.341-.35c.165-.152.33-.306.494-.46l.282-.307.375-.35.298-.118a38.302 38.302 0 0 1-.189-.366l.384.196.69.11.665-.016.835-.145.213-.273.47.12.221-.018-.043-.35.273-.178.4-.145.47.017.024-.207-.038-.032c.302.068.6.145.897.23l-.035.145-.235-.138-.456.097.125.345.559.573-.021.476c.13.104.262.208.393.31l-.29.477.187.034.172.2-.497.145-.173.421-.172.132-.262.179-.208-.159-.166-.13-.29-.09-.434-.035-.228-.034-.131-.02-.152-.14h-.262c-.097.02-.194.038-.29.056l-.318.083-.22.276-.139.31-.172.236-.27.282-.255.166-.276.324-.297.27-.048.262.02.207.055.2.097.166.145.076.249-.117.013-.173.332-.075.014.124.152.276.117.193-.02.117.013.173.241.034.145-.124.249-.173-.076-.22-.028-.222.366-.151-.131-.2-.249-.145.014-.442c.1-.08.198-.161.297-.242l.09-.269.13-.214.318.007.048.235-.269.214-.083.262c.047.11.092.221.138.332l.131.193.373-.02.187-.194.42.096-.006.104-.166.09-.346.124-.248.062-.124.22.09.104-.16.056.049.324.124.207-.29.194-.172.04-.11-.096-.084.056c-.057.038-.115.077-.172.117l-.186.09-.07.151-.158-.138a45.49 45.49 0 0 0-.104-.166c-.04.042-.082.083-.124.125-.112-.01-.225-.02-.338-.028l-.117-.186.069-.228.09-.2c-.05-.071-.097-.143-.146-.214l-.159.138-.165.186.103.353.014.241-.207.076h-.262l-.16.11-.137.228c-.062.053-.125.105-.186.159l-.325.117-.02.165-.242.138-.02.097-.352-.041-.042.158a7.967 7.967 0 0 1-.131.048l-.262-.096-.228.117.103.117.352.131.049.214.124.125-.035.144-.062.408-.145.165-.366.014-.559-.11c-.112.01-.225.022-.338.034l-.193.249-.27.352.035.303-.076.27.09.29.158.158.297.076.007.249.124.075.255-.117.567-.007.13-.083.228-.158.131-.138-.096-.256.048-.255.25-.283.33-.11.173-.263.034-.18.283-.068.283.09.459-.174.336-.1.178.078.079.184.224.235.2.196.303.129.251.134.185.145c.04.065.078.13.117.196l-.016.173-.062.123c.024.04.048.079.073.117l.1-.1.118-.162.05-.107-.062-.106-.095-.095c.02-.028.038-.056.056-.084l.045-.067.157.101.067.095.09-.067-.163-.168-.201-.14-.201-.15-.106.005-.224-.067-.14-.18a80.077 80.077 0 0 1-.123-.234l-.179-.084-.106-.19.033-.073-.055-.111.067-.085.19-.044.156.112.124.162.134.173.15.123.18.061.095.118.312.073.168.246-.056.2.151.158.23.173.301.045.107.196.408.178.073-.162-.252-.173a40.331 40.331 0 0 0-.101-.173 23.773 23.773 0 0 0-.067-.162l.185-.213.262-.022h.235l.247-.1.107-.113-.225-.449.37-.16.48-.353.353.032.289-.224c.144.01.288.02.433.032l.449.208.337.21v.288l-.273.112-.369.08-.385-.144-.449-.032-.272.24-.321.097-.337.176-.385.176.032.32.337.322.353.417.305-.08.112-.193.209.16.433-.063.144-.193.45.033c-.014.083-.026.167-.039.251l-.013.663.055.455.144.035.111.415-.062.248.035.367.16.112.337.401.288.417.209.129.24.497.241.353.32.128.177.321.369.385.484 1.18.834-.61.674-.64c.074-.076.149-.15.224-.225l.032-.337.305-.289.209-.192.08-.385.192-.16-.112-.337.16-.402.064-.336-.337-.241-.256.048-.209-.144-.208-.482-.145.482-.16.305-.272.144a18.035 18.035 0 0 1-.16-.064l-.017-.209-.08-.272-.112.08v.224l-.145-.176-.225-.272-.4-.37-.065-.32.29-.16.352.352.144.209.193-.016.288.16h.193l.256-.32.16-.017.16.337.642-.192.45-.24c.101-.065.202-.13.304-.193l.032-.017.321.305.337.113.24-.193.321.337.385.898.353.658.4.705.226.69.096-.705-.032-1.123-.24-.465c.036-.257.074-.514.111-.77l-.128-.946a262.63 262.63 0 0 1-.048-.53l.088-.263c2.366 7.45-1.096 15.703-8.356 19.116z"/><path d="M13.965 5.486l-.137-.55-.238-.029-.29-.057-.315-.07-.154.212.085.254-.11.297.144.197.341.07.316-.14zM13.385 8.456l.35-.085.223-.061.16-.208.082-.232.115-.127-.153-.276-.267-.042-.153.25-.166.061-.032.22-.102.074-.019.109-.114.086-.026.189z"/><path d="M14 8.807l.2-.084.112.033.201-.1h.342l.352-.034.1-.09-.066-.117.15-.14-.173-.14-.128-.19-.084-.196-.112-.128-.011-.129-.146-.129.023-.15.145-.107.028-.201-.011-.252-.655.05-.078.308.045.263.067.246.185.146.117.223-.162.123h-.112l.011.224-.129.062-.055.095.095.123zM25.408 27.63l.46-.204.247-.392.4-.708.307-.596.316-.588-.034-.827-.23.418h-.077l-.102.187-.265.324-.306.255-.29.162-.052.188-.11.137.051.298-.06.23-.162.162-.179.247-.136.196.077.128-.086.205zM19.21 30.282l-.392-.245.049-.195-.318-.612-.195-.024-.245-1.026-.66-1.003.074-.66.562-.709-.245-.538.098-.366-.391-.611-.832-1.1.294-1.076-.318-.489-.831.024-.269-.121-.342-.49-1.442.27-.318.17-.465-.195-1.149.195-1.148-1.05-.807-.539-.66-.244.415-1.345.392-.928-.123-.954.27-.635.39-.294.073-.39.514-.465.904-.44.27-.905.488-.293.391-.367.343.196.415.098.513-.22.587-.245h.856l.586.098.318-.171.367.098-.245.708.22.196.905.342.367.27.66.22.293-.172-.073-.318.171-.244.905.195 1.002.098.415-.049.49.098.88 1.491.317.49.293.195.318.855.367.269.342.562.464.367.563.513.195.27.245-.22.342-.05.22-.269.587-.415v.978l-.514 1.369-.88 1.296-.978 1.246-.22.83.147.955.049 1.124-.636.562-.635.392-.391.39.098.612-.172.318-.733.366-.098.44-.489.391-.83.685-.758.366-.758.318z"/><path d="M18.46 12.07l-.464.244-.381.081-.05.29.545.278.284.139.203-.319-.095-.307M21.54 12.981l.306-.126.282-.188.336-.323v.135l-.099.143-.046.17.061.081.084.161-.107.108-.167.09-.188.143h-.462l-.107-.143M8.374 8L8 8.365l.186.365.594.301v-.28l.17-.515"/></g></svg><svg width="33" height="33" viewBox="0 0 33 33" id="earth-white" y="165"><title>icon_lang</title><g fill="#fff" fill-rule="evenodd"><path d="M22.385 13.83l.64.66.124-.018.05-.412.043-.458-.073-.27-.198-.035-.274.2-.486.117z"/><path d="M32.02 10.932c-.024-.066-.05-.13-.075-.196a17.32 17.32 0 0 0-.42-1.02c-.035-.078-.066-.155-.102-.232-.09-.191-.183-.38-.28-.566l-.03-.056a16.547 16.547 0 0 0-.48-.856l-.031-.053c-.18-.297-.368-.586-.564-.868l-.013-.02a16.397 16.397 0 0 0-5.43-4.934l-.075-.04c-.288-.16-.58-.313-.877-.456l-.088-.041a16.67 16.67 0 0 0-.91-.4c-.02-.008-.04-.014-.058-.022-.314-.124-.63-.24-.951-.345l-.035-.012a16.327 16.327 0 0 0-1.007-.292l-.033-.01v.001A16.475 16.475 0 0 0 16.481 0c-.099 0-.199.006-.298.008-.065 0-.13.003-.195.005-.554.017-1.109.062-1.664.136-.082.01-.164.02-.246.033-.155.023-.311.048-.467.076a16.588 16.588 0 0 0-1.41.314c-.107.03-.215.06-.322.092-.17.05-.34.103-.509.158-.081.026-.162.052-.243.08-.25.086-.497.178-.742.275l-.163.067c-.215.089-.428.182-.639.28l-.107.046-.066.033c-.228.109-.454.22-.676.34-.043.022-.084.047-.127.07-.17.093-.34.188-.507.287-.102.06-.202.122-.302.184a16.15 16.15 0 0 0-.647.42l-.164.116a16.42 16.42 0 0 0-1.315 1.03l-.086.074c-.142.125-.282.252-.419.38l-.05.049c-.425.405-.826.83-1.203 1.274l-.093.11a17.263 17.263 0 0 0-.715.922c-.06.083-.117.167-.175.25-.075.11-.152.219-.224.33-.123.185-.241.373-.356.564-.048.081-.094.164-.14.246-.076.13-.151.262-.224.395-.048.09-.094.18-.14.27a17.328 17.328 0 0 0-.326.663c-.063.138-.125.277-.185.416-.036.086-.073.171-.108.257l-.04.095a.131.131 0 0 1 .006-.007A16.59 16.59 0 0 0 .14 14.345c-.007.052-.01.103-.016.155-.03.245-.057.492-.077.74-.005.07-.007.14-.012.212-.015.233-.027.467-.032.702l-.001.2c-.002.24 0 .478.007.718l.009.181c.01.245.027.49.049.735l.016.164a16.235 16.235 0 0 0 .248 1.633l.034.168c.05.232.106.465.166.696l.052.198c.058.213.122.424.19.635.026.084.05.168.079.25.062.186.13.369.199.553.04.105.077.211.118.315.063.158.132.315.2.472.055.124.106.248.163.37.011.025.02.05.032.075.101.215.207.425.316.634l.07.13c.121.226.246.448.376.667l.044.075c.155.257.316.51.483.756h.001C5.968 30.369 11.138 33 16.505 33c2.35 0 4.737-.504 7.004-1.57 7.768-3.65 11.36-12.581 8.51-20.498zm-8.791 19.9a15.699 15.699 0 0 1-6.724 1.508c-4.862 0-9.415-2.26-12.385-5.967l-.126-.333.545.065.299-.091.104-.65-.078-.779-.143-.377.195-.13.09-.364.286-.195.04-.662-.17-.377-.377-.208-.377-.65-.506-.286c-.2-.12-.398-.242-.598-.364l-.338-.61-.493-.624v-.598l-.17-.545a880.18 880.18 0 0 0-.467-.715l-.338-.844-.13-.858-.142-.558-.45-.96c.07-.594.175-1.182.31-1.762l.181.513.265.392.204.11-.23-.502-.17-.595-.008-.563-.022-.186c.406-1.392 1-2.727 1.77-3.962l.383-.284.477-.443.708-.272c.13-.055.261-.108.392-.162l.042.272.392.009.563-.188-.52-.187.34-.307.274-.282-.12-.298.324-.034.367.341.383-.009.35-.016.255-.452.18-.64L8.7 4.13l-.588.154.434-.545.298-.478-.494.222-.716.545-.554.256-.776.307.724-.622.185-.3C7.837 3.22 8.5 2.81 9.2 2.448l.336.039.042.358-.272.468-.222.392.622.008.665-.349.767-.358.682-.298-.264-.154-.026-.264.29-.332.154-.333.23.205.11-.145.265.085.468.043-.315.417-.179.205-.358.426-.57.494-.376.12-.392.4-.392.205-.409.409-.196.324.103.102-.077.247.253.13.264-.222.366-.23.435-.264.46-.051.554-.188.282-.179.281.068.708-.11.281-.197.341-.35c.165-.152.33-.306.494-.46l.282-.307.375-.35.298-.118a38.302 38.302 0 0 1-.189-.366l.384.196.69.11.665-.016.835-.145.213-.273.47.12.221-.018-.043-.35.273-.178.4-.145.47.017.024-.207-.038-.032c.302.068.6.145.897.23l-.035.145-.235-.138-.456.097.125.345.559.573-.021.476c.13.104.262.208.393.31l-.29.477.187.034.172.2-.497.145-.173.421-.172.132-.262.179-.208-.159-.166-.13-.29-.09-.434-.035-.228-.034-.131-.02-.152-.14h-.262c-.097.02-.194.038-.29.056l-.318.083-.22.276-.139.31-.172.236-.27.282-.255.166-.276.324-.297.27-.048.262.02.207.055.2.097.166.145.076.249-.117.013-.173.332-.075.014.124.152.276.117.193-.02.117.013.173.241.034.145-.124.249-.173-.076-.22-.028-.222.366-.151-.131-.2-.249-.145.014-.442c.1-.08.198-.161.297-.242l.09-.269.13-.214.318.007.048.235-.269.214-.083.262c.047.11.092.221.138.332l.131.193.373-.02.187-.194.42.096-.006.104-.166.09-.346.124-.248.062-.124.22.09.104-.16.056.049.324.124.207-.29.194-.172.04-.11-.096-.084.056c-.057.038-.115.077-.172.117l-.186.09-.07.151-.158-.138a45.49 45.49 0 0 0-.104-.166c-.04.042-.082.083-.124.125-.112-.01-.225-.02-.338-.028l-.117-.186.069-.228.09-.2c-.05-.071-.097-.143-.146-.214l-.159.138-.165.186.103.353.014.241-.207.076h-.262l-.16.11-.137.228c-.062.053-.125.105-.186.159l-.325.117-.02.165-.242.138-.02.097-.352-.041-.042.158a7.967 7.967 0 0 1-.131.048l-.262-.096-.228.117.103.117.352.131.049.214.124.125-.035.144-.062.408-.145.165-.366.014-.559-.11c-.112.01-.225.022-.338.034l-.193.249-.27.352.035.303-.076.27.09.29.158.158.297.076.007.249.124.075.255-.117.567-.007.13-.083.228-.158.131-.138-.096-.256.048-.255.25-.283.33-.11.173-.263.034-.18.283-.068.283.09.459-.174.336-.1.178.078.079.184.224.235.2.196.303.129.251.134.185.145c.04.065.078.13.117.196l-.016.173-.062.123c.024.04.048.079.073.117l.1-.1.118-.162.05-.107-.062-.106-.095-.095c.02-.028.038-.056.056-.084l.045-.067.157.101.067.095.09-.067-.163-.168-.201-.14-.201-.15-.106.005-.224-.067-.14-.18a80.077 80.077 0 0 1-.123-.234l-.179-.084-.106-.19.033-.073-.055-.111.067-.085.19-.044.156.112.124.162.134.173.15.123.18.061.095.118.312.073.168.246-.056.2.151.158.23.173.301.045.107.196.408.178.073-.162-.252-.173a40.331 40.331 0 0 0-.101-.173 23.773 23.773 0 0 0-.067-.162l.185-.213.262-.022h.235l.247-.1.107-.113-.225-.449.37-.16.48-.353.353.032.289-.224c.144.01.288.02.433.032l.449.208.337.21v.288l-.273.112-.369.08-.385-.144-.449-.032-.272.24-.321.097-.337.176-.385.176.032.32.337.322.353.417.305-.08.112-.193.209.16.433-.063.144-.193.45.033c-.014.083-.026.167-.039.251l-.013.663.055.455.144.035.111.415-.062.248.035.367.16.112.337.401.288.417.209.129.24.497.241.353.32.128.177.321.369.385.484 1.18.834-.61.674-.64c.074-.076.149-.15.224-.225l.032-.337.305-.289.209-.192.08-.385.192-.16-.112-.337.16-.402.064-.336-.337-.241-.256.048-.209-.144-.208-.482-.145.482-.16.305-.272.144a18.035 18.035 0 0 1-.16-.064l-.017-.209-.08-.272-.112.08v.224l-.145-.176-.225-.272-.4-.37-.065-.32.29-.16.352.352.144.209.193-.016.288.16h.193l.256-.32.16-.017.16.337.642-.192.45-.24c.101-.065.202-.13.304-.193l.032-.017.321.305.337.113.24-.193.321.337.385.898.353.658.4.705.226.69.096-.705-.032-1.123-.24-.465c.036-.257.074-.514.111-.77l-.128-.946a262.63 262.63 0 0 1-.048-.53l.088-.263c2.366 7.45-1.096 15.703-8.356 19.116z"/><path d="M13.965 5.486l-.137-.55-.238-.029-.29-.057-.315-.07-.154.212.085.254-.11.297.144.197.341.07.316-.14zM13.385 8.456l.35-.085.223-.061.16-.208.082-.232.115-.127-.153-.276-.267-.042-.153.25-.166.061-.032.22-.102.074-.019.109-.114.086-.026.189z"/><path d="M14 8.807l.2-.084.112.033.201-.1h.342l.352-.034.1-.09-.066-.117.15-.14-.173-.14-.128-.19-.084-.196-.112-.128-.011-.129-.146-.129.023-.15.145-.107.028-.201-.011-.252-.655.05-.078.308.045.263.067.246.185.146.117.223-.162.123h-.112l.011.224-.129.062-.055.095.095.123zM25.408 27.63l.46-.204.247-.392.4-.708.307-.596.316-.588-.034-.827-.23.418h-.077l-.102.187-.265.324-.306.255-.29.162-.052.188-.11.137.051.298-.06.23-.162.162-.179.247-.136.196.077.128-.086.205zM19.21 30.282l-.392-.245.049-.195-.318-.612-.195-.024-.245-1.026-.66-1.003.074-.66.562-.709-.245-.538.098-.366-.391-.611-.832-1.1.294-1.076-.318-.489-.831.024-.269-.121-.342-.49-1.442.27-.318.17-.465-.195-1.149.195-1.148-1.05-.807-.539-.66-.244.415-1.345.392-.928-.123-.954.27-.635.39-.294.073-.39.514-.465.904-.44.27-.905.488-.293.391-.367.343.196.415.098.513-.22.587-.245h.856l.586.098.318-.171.367.098-.245.708.22.196.905.342.367.27.66.22.293-.172-.073-.318.171-.244.905.195 1.002.098.415-.049.49.098.88 1.491.317.49.293.195.318.855.367.269.342.562.464.367.563.513.195.27.245-.22.342-.05.22-.269.587-.415v.978l-.514 1.369-.88 1.296-.978 1.246-.22.83.147.955.049 1.124-.636.562-.635.392-.391.39.098.612-.172.318-.733.366-.098.44-.489.391-.83.685-.758.366-.758.318z"/><path d="M18.46 12.07l-.464.244-.381.081-.05.29.545.278.284.139.203-.319-.095-.307M21.54 12.981l.306-.126.282-.188.336-.323v.135l-.099.143-.046.17.061.081.084.161-.107.108-.167.09-.188.143h-.462l-.107-.143M8.374 8L8 8.365l.186.365.594.301v-.28l.17-.515"/></g></svg><svg width="33" height="33" viewBox="0 0 33 33" id="hamburger-menu" y="198"><title>icon_hamburger</title><defs><rect id="ga" width="32.421" height="4.632" rx="1"/><mask id="gd" x="0" y="0" width="32.421" height="4.632" fill="#fff"><use xlink:href="#ga"/></mask><rect id="gb" y="11.579" width="23.158" height="4.632" rx="1"/><mask id="ge" x="0" y="0" width="23.158" height="4.632" fill="#fff"><use xlink:href="#gb"/></mask><rect id="gc" y="23.158" width="32.421" height="4.632" rx="1"/><mask id="gf" x="0" y="0" width="32.421" height="4.632" fill="#fff"><use xlink:href="#gc"/></mask></defs><g transform="translate(0 3)" stroke="#FFF" stroke-width="1.2" fill="#626272" fill-rule="evenodd"><use mask="url(#gd)" xlink:href="#ga"/><use mask="url(#ge)" xlink:href="#gb"/><use mask="url(#gf)" xlink:href="#gc"/></g></svg><svg width="33" height="33" viewBox="0 0 33 33" id="logo-facebook" y="231"><title>logo-facebook</title><path d="M16.5 33H0V0h33v33H22V22h5.5v-5.5H22v-4.051C22 9.625 27.5 11 27.5 11V5.5c-5.5 0-6.973.117-8.25 1.375-1.277 1.258-2.75 3.29-2.75 5.574V16.5H11V22h5.5s-.308 6.643 0 11z" fill="#4463B8" fill-rule="evenodd"/></svg><svg width="33" height="33" viewBox="0 0 33 33" id="logo-facebook-white" y="264"><title>logo-facebook</title><path d="M16.5 33H0V0h33v33H22V22h5.5v-5.5H22v-4.051C22 9.625 27.5 11 27.5 11V5.5c-5.5 0-6.973.117-8.25 1.375-1.277 1.258-2.75 3.29-2.75 5.574V16.5H11V22h5.5s-.308 6.643 0 11z" fill="#FFF" fill-rule="evenodd"/></svg><svg width="33" height="33" viewBox="0 0 33 33" id="logo-linkedin" y="297"><title>icon_linkedin</title><path d="M0 3.778c0-1.09.38-1.992 1.138-2.706C1.896.357 2.887 0 4.109 0c1.223 0 2.203.357 2.939 1.072.736.714 1.112 1.616 1.127 2.706.015 1.075-.357 1.974-1.116 2.696-.759.721-1.756 1.082-2.994 1.082h-.044c-1.208 0-2.18-.36-2.916-1.082C.368 5.752 0 4.854 0 3.778zm.42 28.656V10.54h7.29v21.895H.42zm10.578.432c.03-5.877 0-11.744 0-15.397V10.87L19 10.54v3.181c.25-.47.552-.883.862-1.237.309-.353.725-.736 1.248-1.149.523-.412 1.163-.733 1.922-.96.759-.23 1.602-.343 2.53-.343 2.519 0 4.544.836 6.076 2.507 1.532 1.672 1.355 3.905 1.355 7.13v13.198h-6.599l.273-12.142c0-1.546-.299-2.758-.895-3.634-.597-.877-1.528-1.315-2.795-1.315-.928 0-1.705.254-2.331.762-.626.509-1.641 2.38-1.95 3.132-.163.441 0 13.197 0 13.197h-7.7z" fill="#077AAF" fill-rule="evenodd"/></svg><svg width="33" height="33" viewBox="0 0 33 33" id="logo-linkedin-white" y="330"><title>icon_linkedin</title><path d="M0 3.778c0-1.09.38-1.992 1.138-2.706C1.896.357 2.887 0 4.109 0c1.223 0 2.203.357 2.939 1.072.736.714 1.112 1.616 1.127 2.706.015 1.075-.357 1.974-1.116 2.696-.759.721-1.756 1.082-2.994 1.082h-.044c-1.208 0-2.18-.36-2.916-1.082C.368 5.752 0 4.854 0 3.778zm.42 28.656V10.54h7.29v21.895H.42zm10.578.432c.03-5.877 0-11.744 0-15.397V10.87L19 10.54v3.181c.25-.47.552-.883.862-1.237.309-.353.725-.736 1.248-1.149.523-.412 1.163-.733 1.922-.96.759-.23 1.602-.343 2.53-.343 2.519 0 4.544.836 6.076 2.507 1.532 1.672 1.355 3.905 1.355 7.13v13.198h-6.599l.273-12.142c0-1.546-.299-2.758-.895-3.634-.597-.877-1.528-1.315-2.795-1.315-.928 0-1.705.254-2.331.762-.626.509-1.641 2.38-1.95 3.132-.163.441 0 13.197 0 13.197h-7.7z" fill="#FFF" fill-rule="evenodd"/></svg><svg width="33" height="33" viewBox="0 0 33 33" id="logo-twitter" y="363"><title>icon_twitter</title><path d="M0 26.783c3.18 2.02 6.639 3.03 10.377 3.03 2.406 0 4.662-.382 6.768-1.145 2.105-.762 3.91-1.783 5.414-3.061a20.325 20.325 0 0 0 3.883-4.415 19.456 19.456 0 0 0 2.417-5.22 19.42 19.42 0 0 0 .79-5.431c0-.387-.011-.677-.033-.87A13.153 13.153 0 0 0 33 6.158a14.337 14.337 0 0 1-3.9 1.096c1.462-.86 2.46-2.116 2.998-3.77-1.397.816-2.836 1.364-4.319 1.643C26.47 3.709 24.825 3 22.85 3c-1.87 0-3.465.66-4.786 1.982-1.321 1.321-1.982 2.916-1.982 4.786 0 .623.054 1.138.161 1.546A19.16 19.16 0 0 1 8.443 9.22a19.184 19.184 0 0 1-6.187-4.995A6.703 6.703 0 0 0 1.32 7.64c0 2.449.978 4.329 2.933 5.64-1.01-.022-2.084-.302-3.223-.839v.065c0 1.611.537 3.045 1.612 4.302 1.074 1.257 2.395 2.036 3.963 2.337-.623.171-1.17.257-1.643.257-.28 0-.698-.043-1.257-.129a6.88 6.88 0 0 0 2.4 3.352 6.43 6.43 0 0 0 3.916 1.353c-2.492 1.934-5.295 2.9-8.41 2.9A12.99 12.99 0 0 1 0 26.784z" fill="#23ADE6" fill-rule="evenodd"/></svg><svg width="33" height="33" viewBox="0 0 33 33" id="logo-twitter-white" y="396"><title>icon_twitter</title><path d="M0 26.783c3.18 2.02 6.639 3.03 10.377 3.03 2.406 0 4.662-.382 6.768-1.145 2.105-.762 3.91-1.783 5.414-3.061a20.325 20.325 0 0 0 3.883-4.415 19.456 19.456 0 0 0 2.417-5.22 19.42 19.42 0 0 0 .79-5.431c0-.387-.011-.677-.033-.87A13.153 13.153 0 0 0 33 6.158a14.337 14.337 0 0 1-3.9 1.096c1.462-.86 2.46-2.116 2.998-3.77-1.397.816-2.836 1.364-4.319 1.643C26.47 3.709 24.825 3 22.85 3c-1.87 0-3.465.66-4.786 1.982-1.321 1.321-1.982 2.916-1.982 4.786 0 .623.054 1.138.161 1.546A19.16 19.16 0 0 1 8.443 9.22a19.184 19.184 0 0 1-6.187-4.995A6.703 6.703 0 0 0 1.32 7.64c0 2.449.978 4.329 2.933 5.64-1.01-.022-2.084-.302-3.223-.839v.065c0 1.611.537 3.045 1.612 4.302 1.074 1.257 2.395 2.036 3.963 2.337-.623.171-1.17.257-1.643.257-.28 0-.698-.043-1.257-.129a6.88 6.88 0 0 0 2.4 3.352 6.43 6.43 0 0 0 3.916 1.353c-2.492 1.934-5.295 2.9-8.41 2.9A12.99 12.99 0 0 1 0 26.784z" fill="#FFF" fill-rule="evenodd"/></svg><svg width="33" height="33" viewBox="0 0 33 33" id="magnifying-glass-white" y="429"><title>icon_search</title><g fill="none" fill-rule="evenodd"><path d="M0 0h33v33H0z"/><path d="M31.406 33a1.58 1.58 0 0 1-1.124-.46l-7.406-7.353C17 29.825 8.523 29.074 3.556 23.475c-4.968-5.598-4.7-14.098.612-19.373 5.311-5.274 13.819-5.49 19.39-.49 5.571 4.999 6.27 13.474 1.592 19.317l7.39 7.357a1.577 1.577 0 0 1-.015 2.24c-.295.301-.698.472-1.119.474zM14.033 3.04c-6.105 0-11.055 4.945-11.055 11.046 0 6.1 4.95 11.046 11.055 11.046 6.105 0 11.054-4.946 11.054-11.046 0-6.101-4.95-11.047-11.054-11.047z" fill="#fff"/></g></svg><svg width="33" height="33" viewBox="0 0 33 33" id="mail" y="462"><title>icon_mail</title><path d="M29.7 3H3.3A3.31 3.31 0 0 0 0 6.3v19.8a3.31 3.31 0 0 0 3.3 3.3h26.4a3.31 3.31 0 0 0 3.3-3.3V6.3A3.31 3.31 0 0 0 29.7 3zM16.5 18.056L0 10.042V8.156l16.5 8.015L33 8.156v1.886l-16.5 8.014z" fill="#9F9FA8" fill-rule="evenodd"/></svg><svg width="33" height="33" viewBox="0 0 33 33" id="mail-white" y="495"><title>icon_mail</title><path d="M29.7 3H3.3A3.31 3.31 0 0 0 0 6.3v19.8a3.31 3.31 0 0 0 3.3 3.3h26.4a3.31 3.31 0 0 0 3.3-3.3V6.3A3.31 3.31 0 0 0 29.7 3zM16.5 18.056L0 10.042V8.156l16.5 8.015L33 8.156v1.886l-16.5 8.014z" fill="#FFF" fill-rule="evenodd"/></svg><svg width="33" height="33" viewBox="0 0 33 33" id="mandatory-star" y="528"><title>icon_mendatory</title><path d="M31.093 14.593l-8.396-.66 5.463-6.38c.733-.733.733-1.98 0-2.713-.733-.733-1.98-.733-2.713 0l-6.38 5.463-.66-8.396A1.894 1.894 0 0 0 16.5 0a1.894 1.894 0 0 0-1.907 1.907l-.66 8.396-6.38-5.463c-.733-.733-1.98-.733-2.713 0-.733.733-.733 1.98 0 2.713l5.463 6.38-8.396.66A1.894 1.894 0 0 0 0 16.5c0 .513.22 1.027.55 1.357.33.33.843.55 1.357.55l8.396.66-5.463 6.38c-.733.733-.733 1.98 0 2.713.367.367.88.55 1.357.55.476 0 .99-.183 1.356-.55l6.38-5.463.66 8.396c0 .514.22 1.027.55 1.357.33.33.844.55 1.357.55a1.894 1.894 0 0 0 1.907-1.907l.66-8.396 6.38 5.463c.366.367.88.55 1.356.55.477 0 .99-.183 1.357-.55.733-.733.733-1.98 0-2.713l-5.463-6.38 8.396-.66A1.894 1.894 0 0 0 33 16.5a1.894 1.894 0 0 0-1.907-1.907z" fill="#CD1719" fill-rule="evenodd"/></svg><svg width="33" height="33" viewBox="0 0 33 33" id="phone" y="561"><title>icon_phone</title><path d="M6.6 14.3c2.567 5.133 6.967 9.35 12.1 12.1l4.033-4.033c.55-.55 1.284-.734 1.834-.367 2.016.733 4.216 1.1 6.6 1.1 1.1 0 1.833.733 1.833 1.833v6.234c0 1.1-.733 1.833-1.833 1.833C13.933 33 0 19.067 0 1.833 0 .733.733 0 1.833 0H8.25c1.1 0 1.833.733 1.833 1.833 0 2.2.367 4.4 1.1 6.6.184.55 0 1.284-.366 1.834L6.6 14.3z" fill="#9F9FA8" fill-rule="evenodd"/></svg><svg width="33" height="33" viewBox="0 0 33 33" id="phone-white" y="594"><title>icon_phone</title><path d="M6.6 14.3c2.567 5.133 6.967 9.35 12.1 12.1l4.033-4.033c.55-.55 1.284-.734 1.834-.367 2.016.733 4.216 1.1 6.6 1.1 1.1 0 1.833.733 1.833 1.833v6.234c0 1.1-.733 1.833-1.833 1.833C13.933 33 0 19.067 0 1.833 0 .733.733 0 1.833 0H8.25c1.1 0 1.833.733 1.833 1.833 0 2.2.367 4.4 1.1 6.6.184.55 0 1.284-.366 1.834L6.6 14.3z" fill="#FFF" fill-rule="evenodd"/></svg><svg width="33" height="33" viewBox="0 0 33 33" id="play" y="627"><title>icon_play</title><path d="M9.234 31.414C7.448 32.722 6 31.996 6 29.782V3.213C6 1.004 7.442.27 9.234 1.581l17.148 12.55c1.787 1.307 1.793 3.422 0 4.734L9.234 31.415z" fill="#626272" fill-rule="evenodd"/></svg><svg width="33" height="33" viewBox="0 0 33 33" id="plus" y="660"><title>icon_plus</title><path d="M16.212.003C7.138.16-.156 7.714.002 16.788c.159 9.074 7.712 16.368 16.786 16.21 9.074-.159 16.368-7.712 16.21-16.786C32.838 7.138 25.285-.156 16.211.002zm8.566 18.003l-6.6.115.116 6.599-3.3.058-.115-6.6-6.599.116-.058-3.3 6.6-.115-.116-6.599 3.3-.058.115 6.6 6.599-.116.058 3.3z" fill="#89A" fill-rule="evenodd"/></svg><svg width="33" height="33" viewBox="0 0 33 33" id="shopping-cart-white" y="693"><title>icon_cartshop</title><path d="M32.824 11.225l-3.505 9.273c-.48 1.272-1.844 2.193-3.24 2.193H12.158c-1.489 0-2.84-1.066-3.144-2.48L5.623 4.426H0V1h5.883c1.49 0 2.84 1.067 3.144 2.48l.938 4.37h20.432c.891 0 1.68.382 2.157 1.048.478.664.578 1.515.27 2.327zm-22.123.051l1.716 7.991H26.08l2.974-7.99H10.7zm2.634 13.7c1.946 0 3.529 1.538 3.529 3.427s-1.583 3.426-3.53 3.426c-1.946 0-3.529-1.537-3.529-3.426 0-1.889 1.583-3.426 3.53-3.426zm12.356 0c1.944 0 3.529 1.538 3.529 3.427s-1.585 3.426-3.53 3.426c-1.946 0-3.53-1.537-3.53-3.426 0-1.889 1.584-3.426 3.53-3.426z" fill="#FFF" fill-rule="evenodd"/></svg><svg width="33" height="33" viewBox="0 0 33 33" id="switch-toggle-bg" y="726"><title>switch-toggle-bg</title><g fill="none" fill-rule="evenodd"><g transform="translate(0 12)"><path fill="#65B32E" d="M0 0h16.5v8.766H0z"/><path d="M7.628 3.937a.53.53 0 0 0-.41-.185.53.53 0 0 0-.41.185.645.645 0 0 0-.166.447.64.64 0 0 0 .166.446.532.532 0 0 0 .41.184.532.532 0 0 0 .41-.184.64.64 0 0 0 .167-.446.645.645 0 0 0-.167-.447zm-.411 1.458a.993.993 0 0 1-.725-.29.973.973 0 0 1-.295-.722c0-.288.098-.529.295-.722a.993.993 0 0 1 .725-.29c.287 0 .529.096.725.29a.973.973 0 0 1 .294.722.973.973 0 0 1-.294.722.993.993 0 0 1-.725.29zm2.744-1.98h.434v1.96H9.96l-.925-1.228v1.229h-.433v-1.96h.406l.952 1.261V3.415z" fill="#FFF"/><path fill="#89A" d="M33 0H16.5v8.766H33z"/><path d="M23.104 4.128a.492.492 0 0 0-.379-.17.492.492 0 0 0-.379.17.587.587 0 0 0-.154.41c0 .16.052.296.154.408a.494.494 0 0 0 .38.168c.149 0 .275-.056.378-.168a.583.583 0 0 0 .154-.408.587.587 0 0 0-.154-.41zm-.38 1.336a.922.922 0 0 1-.943-.927c0-.264.091-.485.273-.662a.922.922 0 0 1 .67-.266.922.922 0 0 1 .942.928.922.922 0 0 1-.943.927zm2.514-1.814v.352h-.832v.388h.791v.352h-.79v.704h-.402V3.65h1.233zm1.572 0v.352h-.832v.388h.791v.352h-.791v.704h-.4V3.65h1.232z" fill="#FFF"/></g><path fill="none" d="M0 0h33v33H0z"/></g></svg><svg width="33" height="33" viewBox="0 0 33 33" id="tick-white" y="759"><title>icon_checkboxthick</title><path d="M29.205 4.373a1.283 1.283 0 0 0-1.808 0L11.36 20.41a1.283 1.283 0 0 1-1.808 0l-3.95-3.95a1.283 1.283 0 0 0-1.808 0l-2.422 2.424a1.283 1.283 0 0 0 0 1.808l8.18 8.178a1.283 1.283 0 0 0 1.808 0L31.627 8.603a1.283 1.283 0 0 0 0-1.808l-2.422-2.422z" fill="#FBFBFB" fill-rule="evenodd"/></svg></svg>